<?xml version="1.0" encoding="UTF-8" standalone="no"?>
<!-- Created with Inkscape (http://www.inkscape.org/) -->

<svg
   xmlns:dc="http://purl.org/dc/elements/1.1/"
   xmlns:cc="http://creativecommons.org/ns#"
   xmlns:rdf="http://www.w3.org/1999/02/22-rdf-syntax-ns#"
   xmlns:svg="http://www.w3.org/2000/svg"
   xmlns="http://www.w3.org/2000/svg"
   xmlns:sodipodi="http://sodipodi.sourceforge.net/DTD/sodipodi-0.dtd"
   xmlns:inkscape="http://www.inkscape.org/namespaces/inkscape"
   width="64"
   height="64"
   viewBox="0 0 16.933333 16.933334"
   version="1.1"
   id="svg4846"
   inkscape:version="0.92.4 (5da689c313, 2019-01-14)"
   sodipodi:docname="5thGen Item Icon-Streamstone Yellow.svg">
  <defs
     id="defs4840" />
  <sodipodi:namedview
     id="base"
     pagecolor="#ffffff"
     bordercolor="#666666"
     borderopacity="1.0"
     inkscape:pageopacity="0.0"
     inkscape:pageshadow="2"
     inkscape:zoom="7.9195959"
     inkscape:cx="13.00126"
     inkscape:cy="33.400362"
     inkscape:document-units="px"
     inkscape:current-layer="layer1"
     showgrid="false"
     units="px"
     inkscape:window-width="1304"
     inkscape:window-height="745"
     inkscape:window-x="-8"
     inkscape:window-y="-8"
     inkscape:window-maximized="1"
     showguides="true"
     inkscape:guide-bbox="true" />
  <metadata
     id="metadata4843">
    <rdf:RDF>
      <cc:Work
         rdf:about="">
        <dc:format>image/svg+xml</dc:format>
        <dc:type
           rdf:resource="http://purl.org/dc/dcmitype/StillImage" />
        <dc:title></dc:title>
      </cc:Work>
    </rdf:RDF>
  </metadata>
  <g
     inkscape:label="Layer 1"
     inkscape:groupmode="layer"
     id="layer1"
     transform="translate(0,-280.06665)">
    <path
       style="display:inline;opacity:1;vector-effect:none;fill:#a541e2;fill-opacity:1;fill-rule:evenodd;stroke:none;stroke-width:0.26458332;stroke-linecap:butt;stroke-linejoin:miter;stroke-miterlimit:4;stroke-dasharray:none;stroke-dashoffset:0;stroke-opacity:1"
       d="m 7.5406058,294.88331 h -1.5875 l -3.175,-1.85209 v -0.52916 l 1.8520802,-1.32292 h 0.5291698 z"
       id="path2346"
       inkscape:connector-curvature="0" />
    <path
       style="display:inline;opacity:1;vector-effect:none;fill:#822fb3;fill-opacity:1;fill-rule:evenodd;stroke:none;stroke-width:0.99999994;stroke-linecap:butt;stroke-linejoin:miter;stroke-miterlimit:4;stroke-dasharray:none;stroke-dashoffset:0;stroke-opacity:1"
       d="M 32.5 10 L 20.5 19 L 16.5 21 L 23.5 47 L 31.5 54 L 33.5 54 L 36.5 45 L 49.5 21 L 32.5 10 z M 10.5 48 L 10.5 55 L 28.5 56 L 10.5 48 z "
       transform="matrix(0.26458334,0,0,0.26458334,0,280.06665)"
       id="path2350" />
    <path
       style="display:inline;opacity:1;vector-effect:none;fill:#822fb3;fill-opacity:1;fill-rule:evenodd;stroke:#000000;stroke-width:0.5291667;stroke-linecap:butt;stroke-linejoin:round;stroke-miterlimit:4;stroke-dasharray:none;stroke-dashoffset:0;stroke-opacity:1"
       d="m 10.451026,295.14789 2.91041,-5.02708 2.116669,2.64583 v 0.52917 l -4.233339,1.85208 z"
       id="path2348"
       inkscape:connector-curvature="0"
       sodipodi:nodetypes="cccccc" />
    <path
       style="display:inline;opacity:1;vector-effect:none;fill:#a541e2;fill-opacity:1;fill-rule:evenodd;stroke:none;stroke-width:0.26458332;stroke-linecap:butt;stroke-linejoin:miter;stroke-miterlimit:4;stroke-dasharray:none;stroke-dashoffset:0;stroke-opacity:1"
       d="m 5.4239357,285.88747 -0.7937497,-0.26458 3.7041698,-2.91042 h 0.2645799 l -0.2645799,2.91042 v 2.38125 l 1.3229101,-0.52917 3.4395901,-1.85208 -2.38125,7.67292 -2.1166703,1.05833 1.0583302,-3.96875 H 8.3343558 Z"
       id="path2336"
       inkscape:connector-curvature="0" />
    <path
       style="display:inline;opacity:1;vector-effect:none;fill:none;fill-opacity:1;fill-rule:evenodd;stroke:#000000;stroke-width:0.5291667;stroke-linecap:butt;stroke-linejoin:round;stroke-miterlimit:4;stroke-dasharray:none;stroke-dashoffset:0;stroke-opacity:1"
       d="m 7.5406058,294.88331 v -0.26459 l -2.38125,-3.43958 H 4.630186 l -1.8520802,1.32292 v 2.11666 z"
       id="path2326"
       inkscape:connector-curvature="0" />
    <path
       style="display:inline;opacity:1;vector-effect:none;fill:none;fill-opacity:1;fill-rule:evenodd;stroke:#000000;stroke-width:0.5291667;stroke-linecap:butt;stroke-linejoin:round;stroke-miterlimit:4;stroke-dasharray:none;stroke-dashoffset:0;stroke-opacity:1"
       d="M 8.5989357,294.35414 H 8.3343558 l -2.1166701,-1.85208 -1.8520799,-6.87917 3.96875,-2.91042 h 0.5291601 l 4.2333401,2.91042 -2.38125,7.67292 z"
       id="path2328"
       inkscape:connector-curvature="0" />
    <path
       style="display:inline;opacity:1;vector-effect:none;fill:#000000;fill-opacity:1;fill-rule:evenodd;stroke:none;stroke-width:0.26458332;stroke-linecap:butt;stroke-linejoin:miter;stroke-miterlimit:4;stroke-dasharray:none;stroke-dashoffset:0;stroke-opacity:1"
       d="m 8.5989357,282.71247 v 4.7625 h 0.5291702 l 3.9687501,-1.85208 -3.1750001,1.85208 -0.5291701,2.38125 h 1.0583302 l -1.8520803,4.49792 0.5291702,-3.43958 -1.85209,0.79375 -1.8520802,-5.82084 2.9104201,-1.85208 z"
       id="path2330"
       inkscape:connector-curvature="0" />
    <path
       style="display:inline;opacity:1;vector-effect:none;fill:#822fb3;fill-opacity:1;fill-rule:evenodd;stroke:none;stroke-width:0.99999994;stroke-linecap:butt;stroke-linejoin:miter;stroke-miterlimit:4;stroke-dasharray:none;stroke-dashoffset:0;stroke-opacity:1"
       d="M 40.5 30 L 38.5 34 L 42.5 33 L 40.5 30 z M 18.5 46 L 15.5 48 L 19.5 49 L 18.5 46 z "
       transform="matrix(0.26458334,0,0,0.26458334,0,280.06665)"
       id="path2334" />
    <path
       style="display:inline;opacity:1;vector-effect:none;fill:#5d1f80;fill-opacity:1;fill-rule:evenodd;stroke:none;stroke-width:0.99999994;stroke-linecap:butt;stroke-linejoin:miter;stroke-miterlimit:4;stroke-dasharray:none;stroke-dashoffset:0;stroke-opacity:1"
       d="M 36.5 18 L 35.5 23 L 40.5 21 L 36.5 18 z M 30.5 45 L 27.5 47 L 30.5 48 L 30.5 45 z M 49.5 46 L 48.5 50 L 53.5 48 L 49.5 46 z "
       transform="matrix(0.26458334,0,0,0.26458334,0,280.06665)"
       id="path2340" />
    <path
       style="display:inline;opacity:1;vector-effect:none;fill:#a541e2;fill-opacity:1;fill-rule:evenodd;stroke:#000000;stroke-width:0.5291667;stroke-linecap:butt;stroke-linejoin:round;stroke-miterlimit:4;stroke-dasharray:none;stroke-dashoffset:0;stroke-opacity:1"
       d="m 3.0426958,286.68122 -0.52917,1.05833 -1.0583299,0.52917 1.0583299,0.52917 0.52917,1.05833 0.5291601,-1.05833 1.0583399,-0.52917 -1.0583399,-0.52917 z"
       id="path3959-3-9"
       inkscape:connector-curvature="0" />
    <path
       style="display:inline;opacity:1;vector-effect:none;fill:#a541e2;fill-opacity:1;fill-rule:evenodd;stroke:#000000;stroke-width:0.5291667;stroke-linecap:butt;stroke-linejoin:round;stroke-miterlimit:4;stroke-dasharray:none;stroke-dashoffset:0;stroke-opacity:1"
       d="m 13.626026,281.91872 -0.52917,1.05833 -1.05833,0.52917 1.05833,0.52917 0.52917,1.05833 0.52916,-1.05833 1.05834,-0.52917 -1.05834,-0.52917 z"
       id="path3959-3-9-5"
       inkscape:connector-curvature="0" />
  </g>
</svg>
